<svg width="96" height="96" viewBox="0 0 96 96" fill="none" xmlns="http://www.w3.org/2000/svg">
<rect width="96" height="96" rx="16" fill="#006EFE"/>
<path fill-rule="evenodd" clip-rule="evenodd" d="M18 32.4001C18 26.4354 22.8353 21.6001 28.8 21.6001H45.6C46.2627 21.6001 46.8 22.1374 46.8 22.8001C46.8 23.4628 46.2627 24.0001 45.6 24.0001H28.8C24.1608 24.0001 20.4 27.7609 20.4 32.4001C20.4 37.0393 24.1608 40.8001 28.8 40.8001H34.4236C36.6514 40.8001 38.7879 39.9151 40.3632 38.3398L53.9397 24.7633C55.9651 22.738 58.7121 21.6001 61.5765 21.6001H68.4C73.7019 21.6001 78 25.8982 78 31.2001C78 36.502 73.7019 40.8001 68.4 40.8001H61.5765C59.3486 40.8001 57.2121 41.6851 55.6368 43.2604L42.0603 56.8368C40.485 58.4122 39.6 60.5487 39.6 62.7765V66.0001C39.6 70.6393 43.3608 74.4001 48 74.4001C52.6392 74.4001 56.4 70.6393 56.4 66.0001V51.6001C56.4 50.9374 56.9373 50.4001 57.6 50.4001C58.2627 50.4001 58.8 50.9374 58.8 51.6001V66.0001C58.8 71.9648 53.9647 76.8001 48 76.8001C42.0353 76.8001 37.2 71.9648 37.2 66.0001V62.7765C37.2 59.9122 38.3379 57.1652 40.3632 55.1398L53.9397 41.5633C55.9651 39.538 58.7121 38.4001 61.5765 38.4001H68.4C72.3765 38.4001 75.6 35.1765 75.6 31.2001C75.6 27.2236 72.3765 24.0001 68.4 24.0001H61.5765C59.3486 24.0001 57.2121 24.8851 55.6368 26.4604L42.0603 40.0368C40.0349 42.0622 37.2879 43.2001 34.4236 43.2001H28.8C22.8353 43.2001 18 38.3648 18 32.4001Z" fill="white"/>
</svg>
