<svg width="96" height="96" viewBox="0 0 96 96" fill="none" xmlns="http://www.w3.org/2000/svg">
<rect width="96" height="96" rx="16" fill="#DAFF00"/>
<rect x="25.5" y="57" width="18" height="18" rx="2.4" fill="#161616"/>
<path d="M70.5 23.4C70.5 22.0745 69.4255 21 68.1 21L27.9 21C26.5745 21 25.5 22.0745 25.5 23.4V38.0059C25.5 38.6424 25.7529 39.2529 26.2029 39.7029L42.7971 56.2971C43.2471 56.7471 43.8576 57 44.4941 57H54.6C55.9255 57 57 55.9255 57 54.6V45.9C57 44.5745 55.9255 43.5 54.6 43.5H45.75C44.5074 43.5 43.5 42.4926 43.5 41.25V41.25C43.5 40.0074 44.5074 39 45.75 39H68.1C69.4255 39 70.5 37.9255 70.5 36.6V23.4Z" fill="#161616"/>
</svg>
