<svg width="96" height="96" viewBox="0 0 96 96" fill="none" xmlns="http://www.w3.org/2000/svg">
<rect width="96" height="96" rx="16" fill="#47A8FF"/>
<path d="M45.6 22.8H28.8C23.4981 22.8 19.2 27.0981 19.2 32.4V32.4C19.2 37.7019 23.4981 42 28.8 42H34.4235C36.9696 42 39.4114 40.9886 41.2118 39.1882L54.7882 25.6118C56.5886 23.8114 59.0304 22.8 61.5764 22.8H68.4C73.0392 22.8 76.8 26.5608 76.8 31.2V31.2C76.8 35.8392 73.0392 39.6 68.4 39.6H61.5764C59.0304 39.6 56.5886 40.6114 54.7882 42.4118L41.2118 55.9882C39.4114 57.7886 38.4 60.2304 38.4 62.7764V66C38.4 71.3019 42.6981 75.6 48 75.6V75.6C53.3019 75.6 57.6 71.3019 57.6 66V51.6" stroke="#022248" stroke-width="2.5" stroke-linecap="round"/>
</svg>